HIERARCHY
ROOT Hips
{
	OFFSET 0.000000 0.000000 0.000000
	CHANNELS 6 Xposition Yposition Zposition Zrotation Yrotation Xrotation 
	JOINT LowerBack
	{
		OFFSET 0.000000 0.000000 0.000000
		CHANNELS 3 Zrotation Yrotation Xrotation
		JOINT Spine
		{
			OFFSET 0.028270 2.035590 -0.193380
			CHANNELS 3 Zrotation Yrotation Xrotation
			JOINT Spine1
			{
				OFFSET 0.056720 2.048850 -0.042750
				CHANNELS 3 Zrotation Yrotation Xrotation
				JOINT Neck
				{
					OFFSET 0.000000 0.000000 0.000000
					CHANNELS 3 Zrotation Yrotation Xrotation
					JOINT Neck1
					{
						OFFSET -0.054170 1.746240 0.172020
						CHANNELS 3 Zrotation Yrotation Xrotation
						JOINT Head
						{
							OFFSET 0.104070 1.761360 -0.123970
							CHANNELS 3 Zrotation Yrotation Xrotation
							End Site
							{
								OFFSET 0.000000 0.000000 0.000000
							}
						}
					}
				}
				JOINT LeftShoulder
				{
					OFFSET 0.000000 0.000000 0.000000
					CHANNELS 3 Zrotation Yrotation Xrotation
					JOINT LeftArm
					{
						OFFSET 3.362410 1.200890 -0.311210
						CHANNELS 3 Zrotation Yrotation Xrotation
						JOINT LeftForeArm
						{
							OFFSET 4.983000 -0.000000 -0.000000
							CHANNELS 3 Zrotation Yrotation Xrotation
							JOINT LeftHand
							{
								OFFSET 3.483560 -0.000000 -0.000000
								CHANNELS 3 Zrotation Yrotation Xrotation
								JOINT LeftFingerBase
								{
									OFFSET 0.000000 0.000000 0.000000
									CHANNELS 3 Zrotation Yrotation Xrotation
									JOINT LeftHandIndex1
									{
										OFFSET 0.715260 -0.000000 -0.000000
										CHANNELS 3 Zrotation Yrotation Xrotation
										End Site
										{
											OFFSET 0.000000 0.000000 0.000000
										}
									}
								}
								JOINT LThumb
								{
									OFFSET 0.000000 0.000000 0.000000
									CHANNELS 3 Zrotation Yrotation Xrotation
									End Site
									{
										OFFSET 0.000000 0.000000 0.000000
									}
								}
							}
						}
					}
				}
				JOINT RightShoulder
				{
					OFFSET 0.000000 0.000000 0.000000
					CHANNELS 3 Zrotation Yrotation Xrotation
					JOINT RightArm
					{
						OFFSET -3.136600 1.374050 -0.404650
						CHANNELS 3 Zrotation Yrotation Xrotation
						JOINT RightForeArm
						{
							OFFSET -5.241900 -0.000000 -0.000000
							CHANNELS 3 Zrotation Yrotation Xrotation
							JOINT RightHand
							{
								OFFSET -3.444170 -0.000000 -0.000000
								CHANNELS 3 Zrotation Yrotation Xrotation
								JOINT RightFingerBase
								{
									OFFSET 0.000000 0.000000 0.000000
									CHANNELS 3 Zrotation Yrotation Xrotation
									JOINT RightHandIndex1
									{
										OFFSET -0.622530 -0.000000 -0.000000
										CHANNELS 3 Zrotation Yrotation Xrotation
										End Site
										{
											OFFSET 0.000000 0.000000 0.000000
										}
									}
								}
								JOINT RThumb
								{
									OFFSET 0.000000 0.000000 0.000000
									CHANNELS 3 Zrotation Yrotation Xrotation
									End Site
									{
										OFFSET 0.000000 0.000000 0.000000
									}
								}
							}
						}
					}
				}
			}
		}
	}
}
}
MOTION
Frames: 7
Frame Time: 0.008333
2.203321 16.859332 2.419313 15.991771 -41.180092 13.788889 -10.143165 2.576794 0.571807 -1.323093 3.316975 -3.507150 1.587492 3.276518 -3.965372 -5.381666 -1.690252 -2.211764 0.536374 -0.053386 1.400564 0.000000 0.000000 0.000000 2.196379 -1.284537 -8.310517 -109.515927 -45.532933 48.040817 178.207844 -71.764793 179.774480 10.325497 -16.866134 -1.642855 0.062842 1.198358 -0.000000 0.000000 0.000000 0.000000 0.000000 0.000000 0.000000 -17.272018 6.479739 6.900806 -21.265411 28.647900 -47.781313 0.935155 18.031197 -0.058831 -10.144447 11.488392 -1.137721 0.395508 -0.795907 -0.000000 0.000000 0.000000 0.000000 0.000000 0.000000 0.000000 
2.205640 16.846063 2.436338 15.712901 -41.409382 14.101467 -10.131839 2.396884 0.438367 -1.272858 3.140924 -3.529613 1.805444 3.097291 -3.964136 -5.164647 -1.707066 -2.010789 0.680730 -0.048024 1.457883 0.000000 0.000000 0.000000 2.171344 -1.415871 -8.141943 -108.928834 -45.645316 47.050934 178.162260 -71.521839 179.770118 10.556017 -16.762314 -1.671130 0.058965 1.205181 -0.000000 0.000000 0.000000 0.000000 0.000000 0.000000 0.000000 -17.931616 6.431063 6.620177 -19.726228 30.570345 -47.229306 0.796410 24.817402 -0.062395 -9.635793 12.239853 -1.146116 0.343183 -0.827270 0.000000 0.000000 0.000000 0.000000 0.000000 0.000000 0.000000 
2.210291 16.833146 2.455172 15.406625 -41.629671 14.443925 -10.077359 2.204735 0.301475 -1.226373 2.950029 -3.576243 1.958850 2.904625 -4.049012 -4.890113 -1.525963 -1.735235 0.772569 -0.047484 1.536668 0.000000 0.000000 0.000000 2.163635 -1.602107 -7.939668 -108.342976 -45.761492 46.065982 178.120585 -71.352356 179.765703 10.771876 -16.667351 -1.697497 0.056144 1.211919 -0.000000 0.000000 0.000000 0.000000 0.000000 0.000000 0.000000 -18.248573 6.500048 6.239136 -18.294633 32.408115 -46.722997 0.629145 31.309437 -0.066011 -9.316705 12.890687 -1.161120 0.298615 -0.843933 0.000000 0.000000 0.000000 0.000000 0.000000 0.000000 0.000000 
2.216940 16.820712 2.474874 15.085905 -41.842514 14.807141 -10.000679 2.010722 0.173660 -1.186028 2.755630 -3.639121 2.054009 2.709316 -4.204241 -4.591877 -1.273639 -1.411385 0.831211 -0.050033 1.629390 0.000000 0.000000 0.000000 2.181427 -1.839390 -7.723314 -107.811967 -45.887423 45.127524 178.083293 -71.266214 179.761408 10.961770 -16.590680 -1.720866 0.054864 1.218123 -0.000000 0.000000 0.000000 0.000000 0.000000 0.000000 0.000000 -18.356216 6.601695 5.761416 -16.724860 34.283567 -46.562583 0.431056 37.399379 -0.070880 -9.181249 13.466163 -1.189154 0.260565 -0.853426 0.000000 0.000000 0.000000 0.000000 0.000000 0.000000 0.000000 
2.224786 16.808923 2.494718 14.765594 -42.052078 15.180039 -9.920566 1.820885 0.059579 -1.155219 2.564617 -3.714170 2.094151 2.517879 -4.421006 -4.278720 -1.001155 -1.052009 0.866581 -0.054787 1.732302 0.000000 0.000000 0.000000 2.231281 -2.123456 -7.502671 -107.359755 -46.026669 44.255936 178.050880 -71.268524 179.757306 11.121143 -16.535277 -1.740943 0.055267 1.223709 -0.000000 0.000000 0.000000 0.000000 0.000000 0.000000 0.000000 -18.321201 6.706652 5.194558 -14.843191 36.229361 -46.706085 0.216856 43.066831 -0.078328 -9.290359 13.938497 -1.239629 0.229526 -0.859867 0.000000 0.000000 0.000000 0.000000 0.000000 0.000000 0.000000 
2.233368 16.798089 2.514167 14.451347 -42.263720 15.555775 -9.846015 1.638699 -0.040416 -1.135009 2.380901 -3.798876 2.084410 2.333789 -4.692224 -3.959935 -0.730271 -0.666022 0.887154 -0.061039 1.842841 0.000000 0.000000 0.000000 2.309437 -2.443805 -7.281901 -106.991153 -46.182695 43.460374 178.023584 -71.358909 179.753437 11.249854 -16.499408 -1.757830 0.057307 1.228613 -0.000000 0.000000 0.000000 0.000000 0.000000 0.000000 0.000000 -18.204321 6.804962 4.545151 -12.499085 38.251415 -47.045216 0.000659 48.312969 -0.089225 -9.684351 14.296509 -1.320247 0.205249 -0.866149 0.000000 0.000000 0.000000 0.000000 0.000000 0.000000 0.000000 
2.241971 16.788360 2.532768 14.156764 -42.481926 15.921845 -9.784566 1.465033 -0.124342 -1.126330 2.205622 -3.890784 2.029296 2.157875 -5.011114 -3.641271 -0.468310 -0.260972 0.898333 -0.068302 1.958784 0.000000 0.000000 0.000000 2.410357 -2.782547 -7.062698 -106.698515 -46.359706 42.744471 178.000861 -71.528606 179.749785 11.352960 -16.479025 -1.771832 0.060733 1.232787 -0.000000 0.000000 0.000000 0.000000 0.000000 0.000000 0.000000 -18.045817 6.891157 3.820693 -9.587488 40.338008 -47.452018 -0.205212 53.138209 -0.104394 -10.413895 14.546884 -1.440406 0.187738 -0.874112 0.000000 0.000000 0.000000 0.000000 0.000000 0.000000 0.000000 
